<?xml version="1.0" standalone="no"?>
<!DOCTYPE svg PUBLIC "-//W3C//DTD SVG 20010904//EN"
 "http://www.w3.org/TR/2001/REC-SVG-20010904/DTD/svg10.dtd">
<svg version="1.0" xmlns="http://www.w3.org/2000/svg"
 width="192.000000pt" height="192.000000pt" viewBox="0 0 192.000000 192.000000"
 preserveAspectRatio="xMidYMid meet">

<g transform="translate(0.000000,192.000000) scale(0.100000,-0.100000)"
fill="#000000" stroke="none">
<path d="M795 1866 c-289 -55 -531 -240 -660 -501 -58 -117 -85 -224 -92 -360
-22 -442 270 -834 704 -942 94 -24 332 -24 426 0 398 99 680 437 704 843 26
437 -258 830 -682 944 -102 27 -300 35 -400 16z m-22 -498 c5 -22 42 -146 102
-338 14 -47 40 -130 56 -185 38 -129 49 -155 63 -155 6 0 30 55 53 123 126
368 137 396 150 385 7 -6 13 -14 13 -18 0 -8 62 -150 79 -180 6 -10 31 -17 82
-20 66 -4 74 -7 74 -25 0 -18 -8 -20 -70 -23 -101 -4 -108 -1 -139 68 -19 41
-33 60 -43 58 -9 -2 -30 -48 -56 -124 -107 -310 -143 -404 -152 -401 -5 2 -14
23 -21 48 -6 24 -28 98 -49 164 -60 193 -72 234 -108 354 -19 63 -39 117 -44
118 -12 4 -22 -22 -75 -182 l-33 -100 -90 0 c-83 0 -90 1 -90 20 0 17 8 20 55
23 93 4 96 6 115 69 9 32 21 69 25 83 5 14 25 78 45 143 20 64 40 117 45 117
4 0 10 -10 13 -22z"/>
</g>
</svg>
